<svg width="200" height="200" xmlns="http://www.w3.org/2000/svg">
  <rect width="200" height="200" fill="white" stroke="black"/>
  <line x1="40" y1="0" x2="40" y2="200" stroke="black"/>
  <line x1="80" y1="0" x2="80" y2="200" stroke="black"/>
  <line x1="120" y1="0" x2="120" y2="200" stroke="black"/>
  <line x1="160" y1="0" x2="160" y2="200" stroke="black"/>
  <line x1="0" y1="40" x2="200" y2="40" stroke="black"/>
  <line x1="0" y1="80" x2="200" y2="80" stroke="black"/>
  <line x1="0" y1="120" x2="200" y2="120" stroke="black"/>
  <line x1="0" y1="160" x2="200" y2="160" stroke="black"/>
  
  <!-- 
  Patron del nivel 16 (3 filas o 3 columnas)
  O O O O O
  X X X X X
  O O O O O
  X X X X X
  O O O O O
  -->


<rect x="0" y="0" width="40" height="40" fill="rgb(6,182,212)" stroke="black"/>
<rect x="40" y="0" width="40" height="40" fill="rgb(6,182,212)" stroke="black"/>
<rect x="80" y="0" width="40" height="40" fill="rgb(6,182,212)" stroke="black"/>
<rect x="120" y="0" width="40" height="40" fill="rgb(6,182,212)" stroke="black"/>
<rect x="160" y="0" width="40" height="40" fill="rgb(6,182,212)" stroke="black"/>

<rect x="0" y="80" width="40" height="40" fill="rgb(6,182,212)" stroke="black"/>
<rect x="40" y="80" width="40" height="40" fill="rgb(6,182,212)" stroke="black"/>
<rect x="80" y="80" width="40" height="40" fill="rgb(6,182,212)" stroke="black"/>
<rect x="120" y="80" width="40" height="40" fill="rgb(6,182,212)" stroke="black"/>
<rect x="160" y="80" width="40" height="40" fill="rgb(6,182,212)" stroke="black"/>

<rect x="0" y="160" width="40" height="40" fill="rgb(6,182,212)" stroke="black"/>
<rect x="40" y="160" width="40" height="40" fill="rgb(6,182,212)" stroke="black"/>
<rect x="80" y="160" width="40" height="40" fill="rgb(6,182,212)" stroke="black"/>
<rect x="120" y="160" width="40" height="40" fill="rgb(6,182,212)" stroke="black"/>
<rect x="160" y="160" width="40" height="40" fill="rgb(6,182,212)" stroke="black"/>

</svg>